<svg xmlns="http://www.w3.org/2000/svg" viewBox="0 0 135 40"><path d="M128 40H7c-3.8 0-7-3.2-7-7V7c0-3.9 3.2-7 7-7h121c3.9 0 7 3.2 7 7v26c0 3.9-3.1 7-7 7z"/><path d="M28.9 19.2c0-1.8 1-3.5 2.5-4.5-1-1.4-2.6-2.3-4.3-2.3-1.8-.2-3.6 1.1-4.5 1.1-.9 0-2.4-1.1-3.9-1-2 .1-3.9 1.2-4.8 2.9-2.1 3.6-.5 8.9 1.5 11.9 1 1.4 2.2 3 3.7 3 1.5-.1 2.1-1 3.9-1 1.8 0 2.3 1 3.9.9 1.6 0 2.6-1.4 3.6-2.9.7-1 1.3-2.1 1.6-3.3-1.9-.8-3.2-2.7-3.2-4.8zM26 10.5c.9-1.1 1.3-2.4 1.2-3.8-1.3.1-2.6.8-3.5 1.8-.9 1-1.3 2.3-1.2 3.6 1.3.1 2.6-.5 3.5-1.6zM49.9 26.6h-5.1l-1.2 3.6h-2.2l4.8-13.4h2.3l4.8 13.4h-2.2l-1.2-3.6zM45.3 25h4.1l-2-5.9h-.1l-2 5.9zM63.8 25.4c0 3-1.6 5-4.1 5-1.3.1-2.5-.6-3.1-1.7v4.8h-2v-13h1.9v1.6c.6-1.1 1.8-1.8 3.1-1.7 2.5 0 4.2 1.9 4.2 5zm-2.1 0c0-2-1-3.3-2.6-3.3-1.5 0-2.6 1.3-2.6 3.3 0 2 1 3.3 2.6 3.3s2.6-1.3 2.6-3.3zM74.5 25.4c0 3-1.6 5-4.1 5-1.3.1-2.5-.6-3.1-1.7v4.8h-2v-13h1.9v1.6c.6-1.1 1.8-1.8 3.1-1.7 2.6 0 4.2 1.9 4.2 5zm-2 0c0-2-1-3.3-2.6-3.3-1.5 0-2.6 1.3-2.6 3.3 0 2 1 3.3 2.6 3.3 1.5 0 2.6-1.3 2.6-3.3zM81.6 26.5c.1 1.3 1.4 2.2 3.2 2.2 1.7 0 2.9-.9 2.9-2.1 0-1-.7-1.7-2.5-2.1l-1.7-.4c-2.5-.6-3.6-1.7-3.6-3.6 0-2.3 2-3.9 4.9-3.9 2.8 0 4.8 1.6 4.8 3.9h-2c-.1-1.3-1.2-2.1-2.8-2.1s-2.7.8-2.7 2c0 .9.7 1.5 2.4 1.9l1.5.4c2.8.7 3.9 1.8 3.9 3.7 0 2.5-2 4.1-5.2 4.1-3 0-5-1.5-5.1-4h2zM94.2 18.2v2.3h1.9v1.6h-1.9v5.4c0 .8.4 1.2 1.2 1.2h.7v1.6c-.4.1-.7.1-1.1.1-2 0-2.8-.7-2.8-2.6v-5.6h-1.4v-1.6h1.4v-2.3h2zM97.1 25.4c0-3.1 1.8-5 4.6-5s4.6 1.9 4.6 5-1.8 5-4.6 5-4.6-1.9-4.6-5zm7.3 0c0-2.1-1-3.4-2.6-3.4s-2.6 1.3-2.6 3.4c0 2.1 1 3.4 2.6 3.4s2.6-1.3 2.6-3.4zM108.1 20.5h1.9v1.7c.3-1.1 1.2-1.8 2.4-1.8.2 0 .5 0 .7.1v1.9c-.3-.1-.6-.1-.9-.1-1.1 0-2.1.8-2.1 1.9v6.1h-2v-9.8zM122.3 27.4c-.3 1.8-2 3-4.2 3-2.8 0-4.6-1.9-4.6-5s1.8-5.1 4.5-5.1 4.4 1.9 4.4 4.8v.7h-6.9v.2c-.1 1.4.9 2.6 2.3 2.8h.3c1 .1 1.9-.5 2.3-1.4h1.9zm-6.8-2.9h4.9c.1-1.3-.9-2.4-2.2-2.5h-.2c-1.3 0-2.5 1.1-2.5 2.5zM45.2 6.9c1.1-.1 2 .8 2.1 1.9V9c0 1.1-.8 2-1.9 2.1H43.8v2.1h-1V6.9h2.4zm-1.5 3.3h1.2c.8 0 1.3-.4 1.3-1.2 0-.8-.5-1.2-1.3-1.2h-1.2v2.4zM48.1 10.8c-.1-1.2.8-2.3 2-2.4 1.2-.1 2.3.8 2.4 2v.4c.1 1.2-.8 2.3-2 2.4-1.2.1-2.3-.8-2.4-2v-.4zm3.5 0c0-1-.5-1.6-1.3-1.6s-1.3.6-1.3 1.6.5 1.6 1.3 1.6c.9.1 1.3-.5 1.3-1.6zM54.8 12.4l-.1.7h-.9V6.6h.9v2.6h.1c.3-.5.9-.9 1.5-.8 1.2 0 2 .9 2 2.4s-.8 2.4-2 2.4c-.6.1-1.2-.2-1.5-.8zm0-1.6c0 1 .5 1.6 1.3 1.6s1.3-.6 1.3-1.6-.5-1.6-1.3-1.6-1.3.6-1.3 1.6zM59.4 7.1c0-.3.2-.6.6-.6s.6.2.6.6c0 .3-.2.6-.6.6-.3 0-.6-.3-.6-.6zm.2 1.4h.9v4.7h-.9V8.5zM66 11.9c-.3.9-1.1 1.5-2 1.4-1.2 0-2.2-.9-2.2-2.1v-.4c-.2-1.2.7-2.3 1.9-2.4h.3c1.3 0 2.1.9 2.1 2.4v.3h-3.3v.1c-.1.7.5 1.3 1.1 1.3h.1c.5.1.9-.2 1.1-.6h.9zm-3.3-1.5h2.4c0-.6-.4-1.2-1.1-1.2h-.1c-.6 0-1.2.5-1.2 1.2zM67.3 8.5h.9v.7h.1c.2-.5.7-.8 1.3-.8h.4v.9c-.2 0-.3-.1-.5-.1-.6-.1-1.1.4-1.2 1v2.9h-.9l-.1-4.6zM70.9 12.6l2.6-3.2v-.1h-2.6v-.8h3.7v.7l-2.5 3.2v.1h2.6v.8H71v-.7zM83.4 13.2h-1l-1-3.5h-.1l-1 3.5h-1L78 8.5h.9l.8 3.6h.3l1-3.6h.9l1 3.6h.1l.8-3.6h.9l-1.3 4.7z" fill="#fff"/></svg>