<?xml version="1.0" encoding="UTF-8"?>
<svg width="708px" height="354px" viewBox="0 0 708 354" version="1.1" xmlns="http://www.w3.org/2000/svg" xmlns:xlink="http://www.w3.org/1999/xlink">
    <!-- Generator: Sketch 54.1 (76490) - https://sketchapp.com -->
    <title>cartoon/course-overview-footprint@1x</title>
    <desc>Created with Sketch.</desc>
    <defs>
        <path d="M31.600529,62.4684918 C14.5193025,62.4684918 0.672232489,48.579137 0.672232489,31.4457496 C0.672232489,14.3123623 14.5193025,0.423007486 31.600529,0.423007486 C48.6817555,0.423007486 62.5288255,14.3123623 62.5288255,31.4457496 C62.5288255,48.579137 48.6817555,62.4684918 31.600529,62.4684918 Z M31.5264596,51.2513773 C42.4724124,51.2513773 51.3458603,42.3508325 51.3458603,31.371454 C51.3458603,20.3920756 42.4724124,11.4915308 31.5264596,11.4915308 C20.5805068,11.4915308 11.7070588,20.3920756 11.7070588,31.371454 C11.7070588,42.3508325 20.5805068,51.2513773 31.5264596,51.2513773 Z" id="path-1"></path>
    </defs>
    <g id="McKA---Getting-Started-Guide" stroke="none" stroke-width="1" fill="none" fill-rule="evenodd">
        <g id="GettingStartedGuide" transform="translate(-366.000000, -1696.000000)">
            <g id="cartoon/course-overview" transform="translate(366.000000, 1696.000000)">
                <polygon id="background" fill="#F3F4F6" fill-rule="evenodd" points="0 0 708 0 708 354 0 354"></polygon>
                <g id="Page-UI/Card/-White-0dp" transform="translate(24.583333, 181.916667)" fill="#FFFFFF" fill-rule="evenodd" stroke-width="1">
                    <g id="1dp">
                        <polygon id="Rectangle-2" points="0 0 659 0 659 172 0 172"></polygon>
                    </g>
                </g>
                <g id="lines" stroke-width="1" fill-rule="evenodd" transform="translate(39.333333, 190.766667)" stroke="#F1F3F6" stroke-linecap="square">
                    <path d="M0,30.975 L629.333333,30.975" id="Line" stroke-width="1.21"></path>
                    <path d="M-5.68434189e-14,0.491666667 L629.333333,0.491666667" id="Line" stroke-width="1.21"></path>
                    <path d="M0,61.4583333 L629.333333,61.4583333" id="Line" stroke-width="1.21"></path>
                    <path d="M0,92.925 L629.333333,92.925" id="Line" stroke-width="1.21"></path>
                    <path d="M0,123.408333 L629.333333,123.408333" id="Line" stroke-width="1.21"></path>
                    <path d="M0,153.891667 L629.333333,153.891667" id="Line" stroke-width="1.21"></path>
                </g>
                <path d="M522.166667,261.566667 L667.666667,261.566667 C668.218951,261.566667 668.666667,262.014382 668.666667,262.566667 L668.666667,272.366667 C668.666667,272.918951 668.218951,273.366667 667.666667,273.366667 L522.166667,273.366667 C521.614382,273.366667 521.166667,272.918951 521.166667,272.366667 L521.166667,262.566667 C521.166667,262.014382 521.614382,261.566667 522.166667,261.566667 Z" id="Rectangle" fill="#F3F4F6" fill-rule="evenodd"></path>
                <path d="M522.166667,293.033333 L667.666667,293.033333 C668.218951,293.033333 668.666667,293.481049 668.666667,294.033333 L668.666667,303.833333 C668.666667,304.385618 668.218951,304.833333 667.666667,304.833333 L522.166667,304.833333 C521.614382,304.833333 521.166667,304.385618 521.166667,303.833333 L521.166667,294.033333 C521.166667,293.481049 521.614382,293.033333 522.166667,293.033333 Z" id="Rectangle" fill="#F3F4F6" fill-rule="evenodd"></path>
                <path d="M522.166667,323.516667 L667.666667,323.516667 C668.218951,323.516667 668.666667,323.964382 668.666667,324.516667 L668.666667,334.316667 C668.666667,334.868951 668.218951,335.316667 667.666667,335.316667 L522.166667,335.316667 C521.614382,335.316667 521.166667,334.868951 521.166667,334.316667 L521.166667,324.516667 C521.166667,323.964382 521.614382,323.516667 522.166667,323.516667 Z" id="Rectangle" fill="#F3F4F6" fill-rule="evenodd"></path>
                <path d="M522.166667,200.6 L667.666667,200.6 C668.218951,200.6 668.666667,201.047715 668.666667,201.6 L668.666667,211.4 C668.666667,211.952285 668.218951,212.4 667.666667,212.4 L522.166667,212.4 C521.614382,212.4 521.166667,211.952285 521.166667,211.4 L521.166667,201.6 C521.166667,201.047715 521.614382,200.6 522.166667,200.6 Z" id="Rectangle" fill="#2042CB" fill-rule="evenodd"></path>
                <path d="M522.166667,231.083333 L667.666667,231.083333 C668.218951,231.083333 668.666667,231.531049 668.666667,232.083333 L668.666667,241.883333 C668.666667,242.435618 668.218951,242.883333 667.666667,242.883333 L522.166667,242.883333 C521.614382,242.883333 521.166667,242.435618 521.166667,241.883333 L521.166667,232.083333 C521.166667,231.531049 521.614382,231.083333 522.166667,231.083333 Z" id="Rectangle" fill="#2042CB" fill-rule="evenodd"></path>
                <path d="M522.166667,261.566667 L586.838156,261.566667 L586.838156,273.366667 L522.166667,273.366667 C521.614382,273.366667 521.166667,272.918951 521.166667,272.366667 L521.166667,262.566667 C521.166667,262.014382 521.614382,261.566667 522.166667,261.566667 Z" id="Rectangle" fill="#2042CB" fill-rule="evenodd"></path>
                <polygon id="placemarker" fill="#2042CB" fill-rule="evenodd" points="24.5833333 221.098718 29.8794212 221.098718 35.1755091 236.832051 29.8794212 252.565385 24.5833333 252.565385"></polygon>
                <path d="M464.908654,209.464183 L470.227163,204.145673 L469.390385,203.280529 L464.908654,207.776442 L462.809615,205.663221 L461.972837,206.5 L464.908654,209.464183 Z M466.1,200.6 C467.17789,200.6 468.175396,200.869468 469.092548,201.408413 C469.981335,201.918993 470.681007,202.618665 471.191587,203.507452 C471.730532,204.424604 472,205.42211 472,206.5 C472,207.57789 471.730532,208.575396 471.191587,209.492548 C470.681007,210.381335 469.981335,211.081007 469.092548,211.591587 C468.175396,212.130532 467.17789,212.4 466.1,212.4 C465.02211,212.4 464.024604,212.130532 463.107452,211.591587 C462.218665,211.071552 461.518993,210.367152 461.008413,209.478365 C460.469468,208.561213 460.2,207.568435 460.2,206.5 C460.2,205.431565 460.469468,204.438787 461.008413,203.521635 C461.528448,202.632848 462.232848,201.928448 463.121635,201.408413 C464.038787,200.869468 465.031565,200.6 466.1,200.6 Z" id="" fill="#2042CB" fill-rule="evenodd"></path>
                <path d="M464.908654,239.947516 L470.227163,234.629006 L469.390385,233.763862 L464.908654,238.259776 L462.809615,236.146554 L461.972837,236.983333 L464.908654,239.947516 Z M466.1,231.083333 C467.17789,231.083333 468.175396,231.352802 469.092548,231.891747 C469.981335,232.402326 470.681007,233.101999 471.191587,233.990785 C471.730532,234.907937 472,235.905443 472,236.983333 C472,238.061223 471.730532,239.058729 471.191587,239.975881 C470.681007,240.864668 469.981335,241.56434 469.092548,242.07492 C468.175396,242.613865 467.17789,242.883333 466.1,242.883333 C465.02211,242.883333 464.024604,242.613865 463.107452,242.07492 C462.218665,241.554885 461.518993,240.850485 461.008413,239.961699 C460.469468,239.044547 460.2,238.051768 460.2,236.983333 C460.2,235.914899 460.469468,234.92212 461.008413,234.004968 C461.528448,233.116181 462.232848,232.411781 463.121635,231.891747 C464.038787,231.352802 465.031565,231.083333 466.1,231.083333 Z" id="" fill="#2042CB" fill-rule="evenodd"></path>
                <path d="M470.666827,268.658013 C470.704648,268.535096 470.742468,268.331812 470.780288,268.048157 L466.68149,268.048157 L466.68149,268.658013 L470.666827,268.658013 Z M469.7875,270.430849 C469.995514,270.137739 470.132612,269.934456 470.198798,269.820994 L466.68149,269.820994 L466.68149,270.430849 L469.7875,270.430849 Z M466.68149,272.146955 C467.267711,272.061859 467.839741,271.877485 468.397596,271.59383 L466.68149,271.59383 L466.68149,272.146955 Z M466.68149,266.275321 L466.68149,266.885176 L470.780288,266.885176 C470.742468,266.601521 470.704648,266.398238 470.666827,266.275321 L466.68149,266.275321 Z M466.68149,264.502484 L466.68149,265.11234 L470.198798,265.11234 C470.132612,264.998878 469.995514,264.795594 469.7875,264.502484 L466.68149,264.502484 Z M466.68149,262.786378 L466.68149,263.339503 L468.397596,263.339503 C467.877562,263.055848 467.305532,262.871475 466.68149,262.786378 Z M465.51851,272.146955 L465.51851,262.786378 C464.75264,262.871475 464.052968,263.133852 463.419471,263.573518 C462.785974,264.013183 462.289585,264.568667 461.930288,265.239984 C461.552081,265.939667 461.362981,266.681887 461.362981,267.466667 C461.362981,268.251446 461.552081,268.993666 461.930288,269.693349 C462.289585,270.355212 462.785974,270.905967 463.419471,271.345633 C464.052968,271.785299 464.75264,272.052403 465.51851,272.146955 Z M466.1,261.566667 C467.17789,261.566667 468.175396,261.836135 469.092548,262.37508 C469.981335,262.88566 470.681007,263.585332 471.191587,264.474119 C471.730532,265.391271 472,266.388777 472,267.466667 C472,268.544557 471.730532,269.542063 471.191587,270.459215 C470.681007,271.348001 469.981335,272.047674 469.092548,272.558253 C468.175396,273.097198 467.17789,273.366667 466.1,273.366667 C465.02211,273.366667 464.024604,273.097198 463.107452,272.558253 C462.218665,272.038219 461.518993,271.333819 461.008413,270.445032 C460.469468,269.52788 460.2,268.535101 460.2,267.466667 C460.2,266.398232 460.469468,265.405453 461.008413,264.488301 C461.528448,263.599515 462.232848,262.895115 463.121635,262.37508 C464.038787,261.836135 465.031565,261.566667 466.1,261.566667 Z" id="" fill="#B3B3B3" fill-rule="evenodd"></path>
                <path d="M466.1,303.670353 C466.950966,303.670353 467.745189,303.452887 468.482692,303.017949 C469.201286,302.601921 469.768588,302.034619 470.184615,301.316026 C470.619553,300.578522 470.837019,299.784299 470.837019,298.933333 C470.837019,298.082368 470.619553,297.288145 470.184615,296.550641 C469.768588,295.832048 469.201286,295.264746 468.482692,294.848718 C467.745189,294.41378 466.950966,294.196314 466.1,294.196314 C465.249034,294.196314 464.454811,294.41378 463.717308,294.848718 C462.998714,295.264746 462.431412,295.832048 462.015385,296.550641 C461.580447,297.288145 461.362981,298.082368 461.362981,298.933333 C461.362981,299.784299 461.580447,300.578522 462.015385,301.316026 C462.431412,302.034619 462.998714,302.601921 463.717308,303.017949 C464.454811,303.452887 465.249034,303.670353 466.1,303.670353 Z M466.1,293.033333 C467.17789,293.033333 468.175396,293.302802 469.092548,293.841747 C469.981335,294.352326 470.681007,295.051999 471.191587,295.940785 C471.730532,296.857937 472,297.855443 472,298.933333 C472,300.011223 471.730532,301.008729 471.191587,301.925881 C470.681007,302.814668 469.981335,303.51434 469.092548,304.02492 C468.175396,304.563865 467.17789,304.833333 466.1,304.833333 C465.02211,304.833333 464.024604,304.563865 463.107452,304.02492 C462.218665,303.504885 461.518993,302.800485 461.008413,301.911699 C460.469468,300.994547 460.2,300.001768 460.2,298.933333 C460.2,297.864899 460.469468,296.87212 461.008413,295.954968 C461.528448,295.066181 462.232848,294.361781 463.121635,293.841747 C464.038787,293.302802 465.031565,293.033333 466.1,293.033333 Z" id="" fill="#B3B3B3" fill-rule="evenodd"></path>
                <path d="M466.1,334.153686 C466.950966,334.153686 467.745189,333.93622 468.482692,333.501282 C469.201286,333.085254 469.768588,332.517952 470.184615,331.799359 C470.619553,331.061855 470.837019,330.267632 470.837019,329.416667 C470.837019,328.565701 470.619553,327.771478 470.184615,327.033974 C469.768588,326.315381 469.201286,325.748079 468.482692,325.332051 C467.745189,324.897113 466.950966,324.679647 466.1,324.679647 C465.249034,324.679647 464.454811,324.897113 463.717308,325.332051 C462.998714,325.748079 462.431412,326.315381 462.015385,327.033974 C461.580447,327.771478 461.362981,328.565701 461.362981,329.416667 C461.362981,330.267632 461.580447,331.061855 462.015385,331.799359 C462.431412,332.517952 462.998714,333.085254 463.717308,333.501282 C464.454811,333.93622 465.249034,334.153686 466.1,334.153686 Z M466.1,323.516667 C467.17789,323.516667 468.175396,323.786135 469.092548,324.32508 C469.981335,324.83566 470.681007,325.535332 471.191587,326.424119 C471.730532,327.341271 472,328.338777 472,329.416667 C472,330.494557 471.730532,331.492063 471.191587,332.409215 C470.681007,333.298001 469.981335,333.997674 469.092548,334.508253 C468.175396,335.047198 467.17789,335.316667 466.1,335.316667 C465.02211,335.316667 464.024604,335.047198 463.107452,334.508253 C462.218665,333.988219 461.518993,333.283819 461.008413,332.395032 C460.469468,331.47788 460.2,330.485101 460.2,329.416667 C460.2,328.348232 460.469468,327.355453 461.008413,326.438301 C461.528448,325.549515 462.232848,324.845115 463.121635,324.32508 C464.038787,323.786135 465.031565,323.516667 466.1,323.516667 Z" id="" fill="#B3B3B3" fill-rule="evenodd"></path>
                <rect id="Name" fill="#D0D0D0" fill-rule="evenodd" x="51.1333333" y="200.6" width="259.6" height="11.8" rx="5.9"></rect>
                <rect id="Name" fill="#D0D0D0" fill-rule="evenodd" x="51.0637728" y="231.083333" width="208.466667" height="11.8" rx="5.9"></rect>
                <rect id="Name" fill="#D0D0D0" fill-rule="evenodd" x="51.0637728" y="261.566667" width="259.6" height="11.8" rx="5.9"></rect>
                <rect id="Name" fill="#D0D0D0" fill-rule="evenodd" x="51.0637728" y="293.033333" width="208.466667" height="11.8" rx="5.9"></rect>
                <rect id="Name" fill="#D0D0D0" fill-rule="evenodd" x="51.1333333" y="323.516667" width="259.6" height="11.8" rx="5.9"></rect>
                <path d="M24.5833333,75.7449097 C24.5833333,74.6431515 25.482576,73.75 26.5919291,73.75 L681.408071,73.75 C682.517388,73.75 683.416667,74.649966 683.416667,75.7449097 L683.416667,164.188424 C683.416667,165.290182 682.517424,166.183333 681.408071,166.183333 L26.5919291,166.183333 C25.4826123,166.183333 24.5833333,165.283367 24.5833333,164.188424 L24.5833333,75.7449097 Z" id="Rectangle-2" fill="#FFFFFF" fill-rule="evenodd"></path>
                <path d="M241.408333,85.55 L241.408333,154.383333" id="metric-divider" stroke="#D0D0D0" stroke-width="1" stroke-linecap="square"></path>
                <path d="M466.591667,85.55 L466.591667,154.383333" id="metric-divider" stroke="#D0D0D0" stroke-width="1" stroke-linecap="square"></path>
                <g id="proficiency" stroke-width="1" fill-rule="evenodd" transform="translate(606.716667, 88.500000)">
                    <mask id="mask-2" fill="white">
                        <use xlink:href="#path-1"></use>
                    </mask>
                    <use id="Combined-Shape" fill="#7FB3D5" xlink:href="#path-1"></use>
                    <polygon id="Rectangle-6" fill="#2042CB" mask="url(#mask-2)" points="-11.4953136 -8.64760277 83.9592523 7.9314821 79.170914 82.9779279 0.758973311 73.8154037"></polygon>
                    <polygon id="Rectangle-21" fill="#EEEEEE" mask="url(#mask-2)" points="30.2057744 -36.8316731 30.9501689 21.824537 21.0376578 25.4221179 -6.94333991 8.20744253 -19.7720615 28.4394353"></polygon>
                </g>
                <g id="engagement" stroke-width="1" fill-rule="evenodd" transform="translate(390.383333, 88.500000)">
                    <circle id="Oval" fill="#EEEEEE" cx="31.4666667" cy="31.4666667" r="31.4666667"></circle>
                    <circle id="40%" fill="#2042CB" opacity="0.40264" cx="31.4666667" cy="31.4666667" r="25.5666667"></circle>
                    <circle id="80%" fill="#2042CB" opacity="0.8" cx="31.4666667" cy="31.4666667" r="19.6666667"></circle>
                    <circle id="100%" fill="#2042CB" cx="31.4666667" cy="31.4666667" r="13.7666667"></circle>
                    <circle id="mask" fill="#191919" opacity="0.396159" cx="31.4666667" cy="31.4666667" r="13.7666667"></circle>
                </g>
                <g id="progress" stroke-width="1" fill-rule="evenodd" transform="translate(39.333333, 139.633333)">
                    <polygon id="Rectangle" fill="#EEEEEE" points="-5.58291467e-14 0 146.172026 0 146.172026 11.8 -5.58291467e-14 11.8"></polygon>
                    <polygon id="Rectangle" fill="#2042CB" points="-4.36039587e-13 4.33676084e-15 30.6961254 7.22793473e-16 30.6961254 11.8 -4.36039587e-13 11.8"></polygon>
                </g>
                <rect id="Name" fill="#D0D0D0" fill-rule="evenodd" x="39.3333333" y="89.4833333" width="59" height="11.8" rx="5.9"></rect>
                <rect id="Name" fill="#E6E6E6" fill-rule="evenodd" x="39.3333333" y="109.15" width="108.166667" height="7.86666667" rx="3.93333333"></rect>
                <rect id="Name" fill="#E6E6E6" fill-rule="evenodd" x="256.65" y="109.15" width="108.166667" height="7.86666667" rx="3.93333333"></rect>
                <rect id="Name" fill="#E6E6E6" fill-rule="evenodd" x="481.833333" y="109.15" width="108.166667" height="7.86666667" rx="3.93333333"></rect>
                <rect id="Name" fill="#D0D0D0" fill-rule="evenodd" x="256.65" y="89.4833333" width="59" height="11.8" rx="5.9"></rect>
                <rect id="Name" fill="#D0D0D0" fill-rule="evenodd" x="481.833333" y="89.4833333" width="59" height="11.8" rx="5.9"></rect>
                <rect id="Name" fill="#B3B3B3" fill-rule="evenodd" x="24.5833333" y="51.1333333" width="59" height="11.8" rx="5.9"></rect>
                <rect id="Name" fill="#D0D0D0" fill-rule="evenodd" x="180.933333" y="51.1333333" width="47.2" height="11.8" rx="5.9"></rect>
                <rect id="Name" fill="#D0D0D0" fill-rule="evenodd" x="239.933333" y="51.1333333" width="47.2" height="11.8" rx="5.9"></rect>
                <rect id="Name" fill="#D0D0D0" fill-rule="evenodd" x="298.933333" y="51.1333333" width="47.2" height="11.8" rx="5.9"></rect>
                <rect id="Name" fill="#D0D0D0" fill-rule="evenodd" x="357.933333" y="51.1333333" width="47.2" height="11.8" rx="5.9"></rect>
                <rect id="Name" fill="#D0D0D0" fill-rule="evenodd" x="416.933333" y="51.1333333" width="47.2" height="11.8" rx="5.9"></rect>
                <path d="M163.724417,60.9623538 C163.201613,60.9623538 162.678809,60.727008 162.282039,60.2563163 L158.316667,55.5521683 L159.554824,54.0833333 L163.517862,58.7874814 C163.632226,58.9217669 163.816607,58.9203825 163.933305,58.786097 L167.895176,54.0833333 L169.133333,55.5521683 L165.169128,60.2549319 C164.770024,60.727008 164.24722,60.9623538 163.724417,60.9623538 Z M101.283333,51.1333333 L148.483333,51.1333333 C151.741813,51.1333333 154.383333,53.7748533 154.383333,57.0333333 C154.383333,60.2918134 151.741813,62.9333333 148.483333,62.9333333 L101.283333,62.9333333 C98.0248533,62.9333333 95.3833333,60.2918134 95.3833333,57.0333333 C95.3833333,53.7748533 98.0248533,51.1333333 101.283333,51.1333333 Z" id="Combined-Shape" fill="#D0D0D0" fill-rule="evenodd"></path>
                <circle id="Oval-Copy" fill="#2042CB" fill-rule="evenodd" cx="464.133333" cy="51.1333333" r="4.91666667"></circle>
                <rect id="Name" fill="#B3B3B3" fill-rule="evenodd" x="24.5833333" y="21.6333333" width="207.483333" height="17.7" rx="8.85"></rect>
            </g>
        </g>
    </g>
</svg>