<?xml version="1.0" encoding="UTF-8"?>
<svg width="344px" height="250px" viewBox="0 0 344 250" version="1.1" xmlns="http://www.w3.org/2000/svg" xmlns:xlink="http://www.w3.org/1999/xlink">
    <!-- Generator: Sketch 54.1 (76490) - https://sketchapp.com -->
    <title>cartoon/my-courses-footprint@1x</title>
    <desc>Created with Sketch.</desc>
    <g id="McKA---Getting-Started-Guide" stroke="none" stroke-width="1" fill="none" fill-rule="evenodd">
        <g id="GettingStartedGuide" transform="translate(-366.000000, -1192.000000)">
            <g id="cartoon/my-courses-sharp" transform="translate(366.000000, 1192.000000)">
                <path d="M0,28 L344,28 L344,246 C344,248.209139 342.209139,250 340,250 L4,250 C1.790861,250 2.705415e-16,248.209139 0,246 L0,28 Z" id="Container" fill="#F3F4F6"></path>
                <path d="M8,0 L336,0 C340.418278,-8.11624501e-16 344,3.581722 344,8 L344,28 L0,28 L0,8 C-5.41083001e-16,3.581722 3.581722,8.11624501e-16 8,0 Z" id="Header" fill="#B3B3B3"></path>
                <g id="Buttons" stroke-width="1" transform="translate(9.000000, 10.000000)" fill="#F2F2F2">
                    <circle id="buttons" cx="4" cy="4" r="4"></circle>
                    <circle id="buttons" cx="16" cy="4" r="4"></circle>
                    <circle id="buttons" cx="28" cy="4" r="4"></circle>
                </g>
                <path d="M18,156 L114,156 C115.104569,156 116,156.895431 116,158 L116,202 L16,202 L16,158 C16,156.895431 16.8954305,156 18,156 Z" id="Data" fill="#2042CB"></path>
                <path d="M16,202 L116,202 L116,228 C116,229.104569 115.104569,230 114,230 L18,230 C16.8954305,230 16,229.104569 16,228 L16,202 Z" id="Data" fill="#FFFFFF"></path>
                <path d="M18,76 L114,76 C115.104569,76 116,76.8954305 116,78 L116,122 L16,122 L16,78 C16,76.8954305 16.8954305,76 18,76 Z" id="Mask" fill="#2042CB"></path>
                <path d="M16,122 L116,122 L116,148 C116,149.104569 115.104569,150 114,150 L18,150 C16.8954305,150 16,149.104569 16,148 L16,122 Z" id="Data" fill="#FFFFFF"></path>
                <path d="M124,76 L220,76 C221.104569,76 222,76.8954305 222,78 L222,122 L122,122 L122,78 C122,76.8954305 122.895431,76 124,76 Z" id="Data" fill="#2042CB"></path>
                <path d="M122,122 L222,122 L222,148 C222,149.104569 221.104569,150 220,150 L124,150 C122.895431,150 122,149.104569 122,148 L122,122 Z" id="Data" fill="#FFFFFF"></path>
                <path d="M230,76 L326,76 C327.104569,76 328,76.8954305 328,78 L328,122 L228,122 L228,78 C228,76.8954305 228.895431,76 230,76 Z" id="Data" fill="#2042CB"></path>
                <path d="M228,122 L328,122 L328,148 C328,149.104569 327.104569,150 326,150 L230,150 C228.895431,150 228,149.104569 228,148 L228,122 Z" id="Data" fill="#FFFFFF"></path>
                <rect id="Name" fill="#D0D0D0" x="130" y="128" width="84" height="6" rx="2.95275591"></rect>
                <rect id="Name" fill="#D0D0D0" x="130" y="138" width="54" height="6" rx="2.95275591"></rect>
                <rect id="Name" fill="#D0D0D0" x="236" y="128" width="84" height="6" rx="2.95275591"></rect>
                <rect id="Name" fill="#D0D0D0" x="236" y="138" width="54" height="6" rx="2.95275591"></rect>
                <rect id="Name" fill="#D0D0D0" x="24" y="128" width="84" height="6" rx="2.95275591"></rect>
                <rect id="Name" fill="#D0D0D0" x="24" y="138" width="54" height="6" rx="2.95275591"></rect>
                <path d="M123.165714,156 L219.165714,156 C220.270284,156 221.165714,156.895431 221.165714,158 L221.165714,202 L121.165714,202 L121.165714,158 C121.165714,156.895431 122.061145,156 123.165714,156 Z" id="Data" fill="#2042CB"></path>
                <path d="M121.165714,202 L221.165714,202 L221.165714,228 C221.165714,229.104569 220.270284,230 219.165714,230 L123.165714,230 C122.061145,230 121.165714,229.104569 121.165714,228 L121.165714,202 Z" id="Data" fill="#FFFFFF"></path>
                <rect id="Name" fill="#B3B3B3" x="24" y="56" width="86" height="8" rx="4"></rect>
                <rect id="Name" fill="#D0D0D0" x="130" y="208" width="84" height="6" rx="2.95275591"></rect>
                <rect id="Name" fill="#D0D0D0" x="130" y="218" width="54" height="6" rx="2.95275591"></rect>
                <rect id="Name" fill="#D0D0D0" x="24" y="208" width="84" height="6" rx="2.95275591"></rect>
                <rect id="Name" fill="#D0D0D0" x="24" y="218" width="54" height="6" rx="2.95275591"></rect>
            </g>
        </g>
    </g>
</svg>