<?xml version="1.0" encoding="UTF-8"?>
<svg width="464px" height="261px" viewBox="0 0 464 261" version="1.1" xmlns="http://www.w3.org/2000/svg" xmlns:xlink="http://www.w3.org/1999/xlink">
    <!-- Generator: Sketch 54.1 (76490) - https://sketchapp.com -->
    <title>cartoon/prev-next-module-navigator@1x</title>
    <desc>Created with Sketch.</desc>
    <defs>
        <path d="M0,28 L464,28 L464,257 C464,259.209139 462.209139,261 460,261 L4,261 C1.790861,261 2.705415e-16,259.209139 0,257 L0,28 Z" id="path-1"></path>
        <rect id="path-3" x="0" y="0" width="192.027027" height="128.412"></rect>
        <rect id="path-5" x="0" y="0" width="192.027027" height="128.412"></rect>
    </defs>
    <g id="McKA---Getting-Started-Guide" stroke="none" stroke-width="1" fill="none" fill-rule="evenodd">
        <g id="GettingStartedGuide" transform="translate(-487.000000, -2295.000000)">
            <g id="cartoon/module-navigation" transform="translate(487.000000, 2295.000000)">
                <mask id="mask-2" fill="white">
                    <use xlink:href="#path-1"></use>
                </mask>
                <use id="Container" fill="#F3F4F6" fill-rule="evenodd" xlink:href="#path-1"></use>
                <g id="left-nav-group" stroke-width="1" fill-rule="evenodd" mask="url(#mask-2)">
                    <g transform="translate(0.000000, 81.432000)">
                        <mask id="mask-4" fill="white">
                            <use xlink:href="#path-3"></use>
                        </mask>
                        <g id="mask" stroke="none" fill="none"></g>
                        <g id="button" stroke="none" stroke-width="1" fill="none" fill-rule="evenodd" mask="url(#mask-4)">
                            <g transform="translate(-65.054054, -0.783000)">
                                <ellipse id="Oval" fill="#2042CB" fill-rule="evenodd" transform="translate(65.054054, 64.989000) rotate(179.970401) translate(-65.054054, -64.989000) " cx="65.0540541" cy="64.989" rx="64.2702703" ry="64.206"></ellipse>
                                <polygon id="" fill="#FFFFFF" fill-rule="nonzero" transform="translate(92.839193, 64.989004) rotate(179.970401) translate(-92.839193, -64.989004) " points="85.3540517 45.4140039 104.948656 64.989014 85.3540719 84.5640039 80.7297452 79.9443015 95.7783861 64.9890093 80.7297297 50.0337015"></polygon>
                            </g>
                        </g>
                        <g id="Group-13" stroke="none" stroke-width="1" fill="none" fill-rule="evenodd" mask="url(#mask-4)">
                            <g transform="translate(74.459459, 39.933000)">
                                <path d="M3.01700458,27.7042857 C2.98040537,27.6479941 2.93989008,27.593953 2.89561568,27.5425872 L0.758322196,25.0629649 C0.257833576,24.4823133 0.275690406,23.6177241 0.799727018,23.0582326 L2.90614228,20.8093032 C2.94580456,20.7669575 2.98279447,20.722546 3.01700458,20.6763308 L3.01700458,1.49943294 C3.01700458,0.671005816 3.68857746,-0.000567059308 4.51700458,-0.000567059308 C4.51936503,-0.000567059308 4.52172547,-0.00056148761 4.52408589,-0.000550344259 L53.8944687,0.232523383 C54.7201225,0.23642123 55.3873874,0.906843624 55.3873874,1.73250667 L55.3873874,47.0347278 C55.3873874,47.8631549 54.7158145,48.5347278 53.8873874,48.5347278 C53.8850269,48.5347278 53.8826665,48.5347222 53.8803061,48.5347111 L4.50992328,48.3016373 C3.68426944,48.2977395 3.01700458,47.6273171 3.01700458,46.8016541 L3.01700458,27.7042857 Z" id="Combined-Shape" stroke="#E6E6E6" stroke-width="1" fill="#FFFFFF" fill-rule="evenodd"></path>
                                <path d="M35.7846284,30.34125 L33.1271115,30.34125 L33.1271115,34.452 L31.1798986,34.452 L31.1798986,30.34125 L22.4725507,30.34125 L22.4725507,28.5672656 L30.9717061,16.4674688 L33.1271115,16.4674688 L33.1271115,28.4938594 L35.7846284,28.4938594 L35.7846284,30.34125 Z M31.1798986,28.4938594 L31.1798986,22.5479531 C31.1798986,21.3816035 31.2207203,20.0643823 31.3023649,18.59625 L31.2043919,18.59625 C30.812498,19.3792539 30.4451031,20.0276693 30.1021959,20.5415156 L24.5054899,28.4938594 L31.1798986,28.4938594 Z" id="4" stroke="none" fill="#000000" fill-rule="nonzero"></path>
                            </g>
                        </g>
                    </g>
                </g>
                <g id="right-nav-group" stroke-width="1" fill-rule="evenodd" mask="url(#mask-2)">
                    <g transform="translate(271.711712, 81.432000)">
                        <mask id="mask-6" fill="white">
                            <use xlink:href="#path-5"></use>
                        </mask>
                        <g id="mask" stroke="none" fill="none" transform="translate(96.013514, 64.206000) scale(-1, 1) translate(-96.013514, -64.206000) "></g>
                        <g id="button" stroke="none" stroke-width="1" fill="none" fill-rule="evenodd" mask="url(#mask-6)">
                            <g transform="translate(126.972973, -0.783000)">
                                <ellipse id="Oval" fill="#2042CB" fill-rule="evenodd" transform="translate(65.054054, 64.989000) scale(-1, 1) rotate(179.970401) translate(-65.054054, -64.989000) " cx="65.0540541" cy="64.989" rx="64.2702703" ry="64.206"></ellipse>
                                <polygon id="" fill="#FFFFFF" fill-rule="nonzero" transform="translate(37.190537, 64.989004) scale(-1, 1) rotate(179.970401) translate(-37.190537, -64.989004) " points="29.7053953 45.4140039 49.3 64.989014 29.7054155 84.5640039 25.0810888 79.9443015 40.1297297 64.9890093 25.0810733 50.0337015"></polygon>
                            </g>
                        </g>
                        <g id="flyout" stroke="none" stroke-width="1" fill="none" fill-rule="evenodd" mask="url(#mask-6)">
                            <g transform="translate(61.657658, 39.933000)">
                                <path d="M52.2522523,22.9045595 L52.3961872,23.0582326 C52.9202238,23.6177241 52.9380806,24.4823133 52.437592,25.0629649 L52.2522523,25.2779904 L52.2522523,46.8018252 C52.2522523,47.627482 51.5849971,48.2979018 50.7593496,48.3018084 L1.50709731,48.5348501 C1.50473156,48.5348613 1.50236578,48.5348669 1.5,48.5348669 C0.671572875,48.5348669 -3.87931523e-15,47.863294 -3.6764091e-15,47.0348669 L2.98173591e-15,1.73264595 C3.1839635e-15,0.906989158 0.667255132,0.236569376 1.49290269,0.232662746 L50.7451549,-0.000378962346 C50.7475207,-0.000390156138 50.7498865,-0.000395753057 50.7522523,-0.000395753057 C51.5806794,-0.000395753057 52.2522523,0.671177122 52.2522523,1.49960425 L52.2522523,22.9045595 Z" id="Combined-Shape" stroke="#E6E6E6" stroke-width="1" fill="#FFFFFF" fill-rule="evenodd"></path>
                                <path d="M20.5335023,26.8055156 C20.5335023,23.2901543 21.2172651,20.661829 22.5848114,18.9204609 C23.9523576,17.1790929 25.9750711,16.3084219 28.6530124,16.3084219 C29.5755958,16.3084219 30.3022214,16.3859055 30.832911,16.540875 L30.832911,18.2903906 C30.204248,18.0864834 29.4857867,17.9845312 28.6775056,17.9845312 C26.7588587,17.9845312 25.2933609,18.5819706 24.2809685,19.7768672 C23.268576,20.9717638 22.7134014,22.8497216 22.6154279,25.4107969 L22.7623874,25.4107969 C23.6604775,24.0079149 25.0810714,23.3064844 27.0242117,23.3064844 C28.6326094,23.3064844 29.9001221,23.7917764 30.8267877,24.762375 C31.7534534,25.7329736 32.2167793,27.0501948 32.2167793,28.7140781 C32.2167793,30.5737124 31.7085496,32.0357056 30.6920749,33.1001016 C29.6756002,34.1644975 28.3019512,34.6966875 26.5710867,34.6966875 C24.7177554,34.6966875 23.2481755,34.0013741 22.1623029,32.6107266 C21.0764304,31.220079 20.5335023,29.285028 20.5335023,26.8055156 Z M26.5465935,32.9716406 C27.7059461,32.9716406 28.6060638,32.6066521 29.2469735,31.8766641 C29.8878833,31.146676 30.2083333,30.0924913 30.2083333,28.7140781 C30.2083333,27.531416 29.9103352,26.6016128 29.31433,25.9246406 C28.7183247,25.2476685 27.8284125,24.9091875 26.6445664,24.9091875 C25.9097655,24.9091875 25.236208,25.0600766 24.6238739,25.3618594 C24.0115397,25.6636421 23.5237208,26.0796067 23.1604026,26.6097656 C22.7970843,27.1399245 22.6154279,27.6904659 22.6154279,28.2614063 C22.6154279,29.1015042 22.7787146,29.8844964 23.1052928,30.6104063 C23.431871,31.3363161 23.8951969,31.911326 24.4952843,32.3354531 C25.0953718,32.7595802 25.7791347,32.9716406 26.5465935,32.9716406 Z" id="6" stroke="none" fill="#000000" fill-rule="nonzero"></path>
                            </g>
                        </g>
                    </g>
                </g>
                <path d="M8,0 L456,0 C460.418278,-8.11624501e-16 464,3.581722 464,8 L464,29.232 L0,29.232 L0,8 C-5.41083001e-16,3.581722 3.581722,8.11624501e-16 8,0 Z" id="Header" fill="#B3B3B3" fill-rule="evenodd"></path>
                <g id="Buttons" stroke-width="1" fill-rule="evenodd" transform="translate(9.000000, 10.000000)" fill="#F2F2F2">
                    <circle id="buttons" cx="4" cy="4" r="4"></circle>
                    <circle id="buttons" cx="16" cy="4" r="4"></circle>
                    <circle id="buttons" cx="28" cy="4" r="4"></circle>
                </g>
            </g>
        </g>
    </g>
</svg>