<?xml version="1.0" encoding="UTF-8"?>
<svg width="464px" height="261px" viewBox="0 0 464 261" version="1.1" xmlns="http://www.w3.org/2000/svg" xmlns:xlink="http://www.w3.org/1999/xlink">
    <!-- Generator: Sketch 54.1 (76490) - https://sketchapp.com -->
    <title>cartoon/progress@1x</title>
    <desc>Created with Sketch.</desc>
    <defs>
        <rect id="path-1" x="0" y="0" width="464" height="261"></rect>
        <polygon id="path-3" points="117.933333 62.7765541 237.501104 62.7765541 243.295366 59.2888889 248.613128 62.7765541 442.733333 62.7765541 442.733333 235.222222 117.933333 235.222222"></polygon>
        <filter x="-2.2%" y="-3.2%" width="105.5%" height="110.0%" filterUnits="objectBoundingBox" id="filter-4">
            <feMorphology radius="1" operator="erode" in="SourceAlpha" result="shadowSpreadOuter1"></feMorphology>
            <feOffset dx="2" dy="3" in="shadowSpreadOuter1" result="shadowOffsetOuter1"></feOffset>
            <feGaussianBlur stdDeviation="3.5" in="shadowOffsetOuter1" result="shadowBlurOuter1"></feGaussianBlur>
            <feComposite in="shadowBlurOuter1" in2="SourceAlpha" operator="out" result="shadowBlurOuter1"></feComposite>
            <feColorMatrix values="0 0 0 0 0   0 0 0 0 0   0 0 0 0 0  0 0 0 0.5 0" type="matrix" in="shadowBlurOuter1"></feColorMatrix>
        </filter>
    </defs>
    <g id="McKA---Getting-Started-Guide" stroke="none" stroke-width="1" fill="none" fill-rule="evenodd">
        <g id="GettingStartedGuide" transform="translate(-487.000000, -2661.000000)">
            <g id="cartoon/progress" transform="translate(487.000000, 2661.000000)">
                <mask id="mask-2" fill="white">
                    <use xlink:href="#path-1"></use>
                </mask>
                <use id="Rectangle" fill="#F3F4F6" fill-rule="evenodd" xlink:href="#path-1"></use>
                <rect id="Rectangle" fill="#FFFFFF" fill-rule="evenodd" mask="url(#mask-2)" x="19.3333333" y="85.0666667" width="447.888889" height="175.933333"></rect>
                <path d="M45.0080224,146.621839 C5.58283233,244.086956 65.5124888,276.418193 113.982583,277.875689 C179.072215,279.831889 202.036485,262.837982 233.141535,261.965748 C261.446362,261.172748 288.072274,268.526144 313.690351,275.140471 C343.441045,282.821454 369.212859,286.490827 401.908972,284.140457 C498.351343,277.207864 482.30039,232.437644 479.027973,221.311005 C474.999068,207.611611 456.554199,192.013943 435.299346,186.857111 C376.15546,172.507869 331.350669,194.319702 304.545396,192.044571 C272.029863,189.285383 238.996991,181.577101 221.635607,165.872901 C202.42327,148.494811 196.952158,113.827852 163.006621,104.727992 C94.038161,86.2399684 56.5383531,118.116445 45.0080224,146.621839" id="Background07" fill="#F3F4F6" fill-rule="evenodd" mask="url(#mask-2)"></path>
                <g id="flyout-menu" mask="url(#mask-2)">
                    <use fill="black" fill-opacity="1" filter="url(#filter-4)" xlink:href="#path-3"></use>
                    <path stroke="#EBEBEB" stroke-width="0.5" d="M118.183333,63.0265541 L118.183333,234.972222 L442.483333,234.972222 L442.483333,63.0265541 L248.613128,63.0265541 L248.476022,62.9856042 L243.28966,59.5841179 L237.63003,62.9907459 L237.501104,63.0265541 L118.183333,63.0265541 Z M442.483333,234.972222 L442.733333,234.972222 L442.483333,235.222222 L442.483333,234.972222 Z" stroke-linejoin="square" fill="#FFFFFF" fill-rule="evenodd"></path>
                </g>
                <polygon id="placemarker" fill="#2042CB" fill-rule="evenodd" mask="url(#mask-2)" points="118.577778 145 125.022222 145 131.466667 156.922222 125.022222 168.844444 118.577778 168.844444"></polygon>
                <g id="lines" stroke-width="1" fill-rule="evenodd" mask="url(#mask-2)" stroke="#F1F3F6" stroke-linecap="square">
                    <g transform="translate(135.977778, 97.311111)" id="Line" stroke-width="1.21">
                        <path d="M0.876444444,118.323222 L290.876444,118.323222"></path>
                        <path d="M0,0.322222222 L290.644444,0.322222222"></path>
                        <path d="M0.876444444,24.2343333 L290.876444,24.2343333"></path>
                        <path d="M0.876444444,47.4343333 L290.876444,47.4343333"></path>
                        <path d="M0.876444444,71.2787778 L290.876444,71.2787778"></path>
                        <path d="M0.876444444,94.4787778 L290.876444,94.4787778"></path>
                    </g>
                </g>
                <rect id="Name" fill="#B3B3B3" fill-rule="evenodd" mask="url(#mask-2)" x="19.3333333" y="25.7777778" width="201.711111" height="20.6222222" rx="10.3111111"></rect>
                <rect id="Name" fill="#E6E6E6" fill-rule="evenodd" mask="url(#mask-2)" x="135.977778" y="104.4" width="252.622222" height="10.3111111" rx="5.15555556"></rect>
                <rect id="Name" fill="#E6E6E6" fill-rule="evenodd" mask="url(#mask-2)" x="135.977778" y="127.6" width="244.244444" height="10.3111111" rx="5.15555556"></rect>
                <rect id="Name" fill="#B3B3B3" fill-rule="evenodd" mask="url(#mask-2)" x="135.977778" y="82.4888889" width="143.066667" height="10.9555556" rx="5.47777778"></rect>
                <rect id="Name" fill="#E6E6E6" fill-rule="evenodd" mask="url(#mask-2)" x="135.977778" y="151.444444" width="225.555556" height="10.3111111" rx="5.15555556"></rect>
                <rect id="Name" fill="#E6E6E6" fill-rule="evenodd" mask="url(#mask-2)" x="135.977778" y="174.644444" width="252.622222" height="10.3111111" rx="5.15555556"></rect>
                <rect id="Name" fill="#E6E6E6" fill-rule="evenodd" mask="url(#mask-2)" x="135.977778" y="198.488889" width="227.488889" height="10.3111111" rx="5.15555556"></rect>
                <path d="M241.665554,41.8888889 C240.668817,41.8888889 239.67208,41.4920284 238.915628,40.6983073 L231.355556,32.7657655 L233.716131,30.2888889 L241.271754,38.2214306 C241.48979,38.4478746 241.841318,38.4455401 242.063804,38.2190962 L249.617202,30.2888889 L251.977778,32.7657655 L244.41993,40.6959728 C243.659028,41.4920284 242.662291,41.8888889 241.665554,41.8888889" id="icons/primary/-carrot-down" fill="#B3B3B3" fill-rule="evenodd" mask="url(#mask-2)"></path>
                <path d="M416.298718,112.793269 L422.108013,106.983974 L421.194017,106.038996 L416.298718,110.949786 L414.005983,108.64156 L413.091987,109.555556 L416.298718,112.793269 Z M417.6,103.111111 C418.777356,103.111111 419.866911,103.405446 420.868697,103.994124 C421.839499,104.551819 422.603737,105.316056 423.161432,106.286859 C423.75011,107.288645 424.044444,108.378199 424.044444,109.555556 C424.044444,110.732912 423.75011,111.822467 423.161432,112.824252 C422.603737,113.795055 421.839499,114.559292 420.868697,115.116987 C419.866911,115.705665 418.777356,116 417.6,116 C416.422644,116 415.333089,115.705665 414.331303,115.116987 C413.360501,114.548964 412.596263,113.779563 412.038568,112.808761 C411.44989,111.806975 411.155556,110.722584 411.155556,109.555556 C411.155556,108.388527 411.44989,107.304136 412.038568,106.30235 C412.606591,105.331548 413.375992,104.562147 414.346795,103.994124 C415.348581,103.405446 416.432971,103.111111 417.6,103.111111 Z" id="" fill="#2042CB" fill-rule="evenodd" mask="url(#mask-2)"></path>
                <path d="M416.298718,135.993269 L422.108013,130.183974 L421.194017,129.238996 L416.298718,134.149786 L414.005983,131.84156 L413.091987,132.755556 L416.298718,135.993269 Z M417.6,126.311111 C418.777356,126.311111 419.866911,126.605446 420.868697,127.194124 C421.839499,127.751819 422.603737,128.516056 423.161432,129.486859 C423.75011,130.488645 424.044444,131.578199 424.044444,132.755556 C424.044444,133.932912 423.75011,135.022467 423.161432,136.024252 C422.603737,136.995055 421.839499,137.759292 420.868697,138.316987 C419.866911,138.905665 418.777356,139.2 417.6,139.2 C416.422644,139.2 415.333089,138.905665 414.331303,138.316987 C413.360501,137.748964 412.596263,136.979563 412.038568,136.008761 C411.44989,135.006975 411.155556,133.922584 411.155556,132.755556 C411.155556,131.588527 411.44989,130.504136 412.038568,129.50235 C412.606591,128.531548 413.375992,127.762147 414.346795,127.194124 C415.348581,126.605446 416.432971,126.311111 417.6,126.311111 Z" id="" fill="#2042CB" fill-rule="evenodd" mask="url(#mask-2)"></path>
                <path d="M422.588248,157.901282 C422.629559,157.767022 422.670869,157.54498 422.712179,157.23515 L418.23515,157.23515 L418.23515,157.901282 L422.588248,157.901282 Z M421.627778,159.837714 C421.854987,159.517555 422.004736,159.295513 422.07703,159.171581 L418.23515,159.171581 L418.23515,159.837714 L421.627778,159.837714 Z M418.23515,161.712179 C418.875466,161.61923 419.500282,161.417843 420.109615,161.108013 L418.23515,161.108013 L418.23515,161.712179 Z M418.23515,155.298718 L418.23515,155.96485 L422.712179,155.96485 C422.670869,155.65502 422.629559,155.432978 422.588248,155.298718 L418.23515,155.298718 Z M418.23515,153.362286 L418.23515,154.028419 L422.07703,154.028419 C422.004736,153.904487 421.854987,153.682445 421.627778,153.362286 L418.23515,153.362286 Z M418.23515,151.487821 L418.23515,152.091987 L420.109615,152.091987 C419.541593,151.782157 418.916777,151.58077 418.23515,151.487821 Z M416.96485,161.712179 L416.96485,151.487821 C416.128308,151.58077 415.36407,151.867359 414.672115,152.347596 C413.98016,152.827834 413.437965,153.434576 413.045513,154.167842 C412.632405,154.932091 412.425855,155.742802 412.425855,156.6 C412.425855,157.457198 412.632405,158.267909 413.045513,159.032158 C413.437965,159.755096 413.98016,160.356675 414.672115,160.836912 C415.36407,161.31715 416.128308,161.608903 416.96485,161.712179 Z M417.6,150.155556 C418.777356,150.155556 419.866911,150.44989 420.868697,151.038568 C421.839499,151.596263 422.603737,152.360501 423.161432,153.331303 C423.75011,154.333089 424.044444,155.422644 424.044444,156.6 C424.044444,157.777356 423.75011,158.866911 423.161432,159.868697 C422.603737,160.839499 421.839499,161.603737 420.868697,162.161432 C419.866911,162.75011 418.777356,163.044444 417.6,163.044444 C416.422644,163.044444 415.333089,162.75011 414.331303,162.161432 C413.360501,161.593409 412.596263,160.824008 412.038568,159.853205 C411.44989,158.851419 411.155556,157.767029 411.155556,156.6 C411.155556,155.432971 411.44989,154.348581 412.038568,153.346795 C412.606591,152.375992 413.375992,151.606591 414.346795,151.038568 C415.348581,150.44989 416.432971,150.155556 417.6,150.155556 Z" id="" fill="#B3B3B3" fill-rule="evenodd" mask="url(#mask-2)"></path>
                <path d="M417.6,184.974145 C418.529492,184.974145 419.397005,184.736612 420.202564,184.261538 C420.987468,183.80712 421.60712,183.187468 422.061538,182.402564 C422.536612,181.597005 422.774145,180.729492 422.774145,179.8 C422.774145,178.870508 422.536612,178.002995 422.061538,177.197436 C421.60712,176.412532 420.987468,175.79288 420.202564,175.338462 C419.397005,174.863388 418.529492,174.625855 417.6,174.625855 C416.670508,174.625855 415.802995,174.863388 414.997436,175.338462 C414.212532,175.79288 413.59288,176.412532 413.138462,177.197436 C412.663388,178.002995 412.425855,178.870508 412.425855,179.8 C412.425855,180.729492 412.663388,181.597005 413.138462,182.402564 C413.59288,183.187468 414.212532,183.80712 414.997436,184.261538 C415.802995,184.736612 416.670508,184.974145 417.6,184.974145 Z M417.6,173.355556 C418.777356,173.355556 419.866911,173.64989 420.868697,174.238568 C421.839499,174.796263 422.603737,175.560501 423.161432,176.531303 C423.75011,177.533089 424.044444,178.622644 424.044444,179.8 C424.044444,180.977356 423.75011,182.066911 423.161432,183.068697 C422.603737,184.039499 421.839499,184.803737 420.868697,185.361432 C419.866911,185.95011 418.777356,186.244444 417.6,186.244444 C416.422644,186.244444 415.333089,185.95011 414.331303,185.361432 C413.360501,184.793409 412.596263,184.024008 412.038568,183.053205 C411.44989,182.051419 411.155556,180.967029 411.155556,179.8 C411.155556,178.632971 411.44989,177.548581 412.038568,176.546795 C412.606591,175.575992 413.375992,174.806591 414.346795,174.238568 C415.348581,173.64989 416.432971,173.355556 417.6,173.355556 Z" id="" fill="#B3B3B3" fill-rule="evenodd" mask="url(#mask-2)"></path>
                <path d="M417.6,208.81859 C418.529492,208.81859 419.397005,208.581057 420.202564,208.105983 C420.987468,207.651565 421.60712,207.031913 422.061538,206.247009 C422.536612,205.441449 422.774145,204.573936 422.774145,203.644444 C422.774145,202.714953 422.536612,201.84744 422.061538,201.04188 C421.60712,200.256976 420.987468,199.637324 420.202564,199.182906 C419.397005,198.707832 418.529492,198.470299 417.6,198.470299 C416.670508,198.470299 415.802995,198.707832 414.997436,199.182906 C414.212532,199.637324 413.59288,200.256976 413.138462,201.04188 C412.663388,201.84744 412.425855,202.714953 412.425855,203.644444 C412.425855,204.573936 412.663388,205.441449 413.138462,206.247009 C413.59288,207.031913 414.212532,207.651565 414.997436,208.105983 C415.802995,208.581057 416.670508,208.81859 417.6,208.81859 Z M417.6,197.2 C418.777356,197.2 419.866911,197.494335 420.868697,198.083013 C421.839499,198.640708 422.603737,199.404945 423.161432,200.375748 C423.75011,201.377533 424.044444,202.467088 424.044444,203.644444 C424.044444,204.821801 423.75011,205.911355 423.161432,206.913141 C422.603737,207.883944 421.839499,208.648181 420.868697,209.205876 C419.866911,209.794554 418.777356,210.088889 417.6,210.088889 C416.422644,210.088889 415.333089,209.794554 414.331303,209.205876 C413.360501,208.637853 412.596263,207.868452 412.038568,206.89765 C411.44989,205.895864 411.155556,204.811473 411.155556,203.644444 C411.155556,202.477416 411.44989,201.393025 412.038568,200.391239 C412.606591,199.420437 413.375992,198.651036 414.346795,198.083013 C415.348581,197.494335 416.432971,197.2 417.6,197.2 Z" id="" fill="#B3B3B3" fill-rule="evenodd" mask="url(#mask-2)"></path>
            </g>
        </g>
    </g>
</svg>