<?xml version="1.0" encoding="utf-8"?>
<!-- Generator: Adobe Illustrator 22.1.0, SVG Export Plug-In . SVG Version: 6.00 Build 0)  -->
<svg version="1.1" id="Layer_1" xmlns="http://www.w3.org/2000/svg" xmlns:xlink="http://www.w3.org/1999/xlink" x="0px" y="0px"
	 viewBox="0 0 283.4 90.2" style="enable-background:new 0 0 283.4 90.2;" xml:space="preserve">
<style type="text/css">
	.st0{fill:#051C2C;}
</style>
<g>
	<path class="st0" d="M5.7,5.7c0-0.7-1.9-2.5-2.5-2.5H1.6V1.6h9.5l9.8,24.6h0.2L31.4,1.6h8.5v1.6h-1.6c-0.6,0-2.5,1.8-2.5,2.5v24.5
		c0,0.7,1.9,2.5,2.5,2.5h1.6v1.6H27.3v-1.6h1.6c0.6,0,2.5-1.8,2.5-2.5V6.4L19.5,34.8L7.7,5.9v24.2c0,0.7,1.9,2.5,2.5,2.5h1.6v1.6
		H1.6v-1.6h1.6c0.6,0,2.5-1.8,2.5-2.5V5.7z"/>
	<path class="st0" d="M53.6,20.3c0.6-3.3,0-6.2-3.6-6.2c-4.2,0-6.3,3.4-6.3,8.3c0,4.7,3,8.6,7.8,8.6c3.7,0,5.2-1.3,6.7-3.8h1.3
		c-1.4,4.6-4.2,7.5-9.5,7.5c-5.9,0-9.7-5-9.7-11c0-6.8,4.5-11.3,10.1-11.3c3.3,0,5.6,1,7.5,3l-3.1,4.8L53.6,20.3z"/>
	<g>
		<path class="st0" d="M96.3,8.1C97.8,8.1,99,7,99,5.3c0-1.7-1.2-2.7-2.7-2.7s-2.8,1-2.8,2.7C93.5,7,94.7,8.1,96.3,8.1z"/>
		<path class="st0" d="M126.3,32.6c-0.6,0-2.3-1.5-2.3-2.2V18.6c0-3.6-2.6-6-5.9-6c-3.8,0-5.8,2.2-8.3,4.8L109,13h-6.7v1.6h1.3
			c0.6,0,2.3,1.6,2.3,2.2v13.5c0,0.7-1.7,2.2-2.3,2.2h-1.3H101c-0.6,0-2.3-1.5-2.3-2.2V13h-7.6v1.6h1.3c0.6,0,2.3,1.6,2.3,2.2v13.5
			c0,0.7-1.7,2.2-2.3,2.2h-1.3H90c-0.7,0-3.3-2-3.9-2.7L74.7,14.7l7.9-8.5c0.4-0.5,3.5-3,4.2-3h1.6V1.6H76.6v1.6h1.6
			c0.6,0,2.5,2.2,2,2.8L68.5,19V5.7c0-0.7,1.9-2.5,2.5-2.5h1.6V1.6H59.9v1.6h1.6C62.1,3.2,64,5,64,5.7v24.5c0,0.7-1.9,2.5-2.5,2.5
			h-1.6v1.6h12.7v-1.6H71c-0.6,0-2.5-1.8-2.5-2.5v-8.6l3.3-3.6l11.3,16.3h8h11.2h11.1v-1.6h-1.2c-0.6,0-2.3-1.5-2.3-2.2V19.6
			c0-1.4,3.9-4.4,6.9-4.4c2.3,0,3.4,1.6,3.4,3.6v11.6c0,0.7-1.7,2.2-2.3,2.2h-1.2v1.6h10.8v-1.6H126.3z"/>
	</g>
	<path class="st0" d="M130.2,26.8c0,2,2.9,6.2,7.4,6.2c2.6,0,4.1-0.9,4.1-2.9c0-2.4-2.1-3.2-4-4c-1.5-0.6-2.7-1.1-4.4-1.9
		c-2.6-1.2-4.5-2.9-4.5-5.8c0-3.8,2.3-6,6.4-6c2.3,0,3.6,1.1,5.2,1.1c0.6,0,1-0.1,1.2-0.6h1.2v6.5h-1.3c0-1.7-2.5-5.5-6.4-5.5
		c-2.5,0-3.6,1.1-3.6,2.8c0,1.8,1.3,2.5,3.4,3.4c1.6,0.7,2.8,1.2,4.6,1.9c2.3,0.9,4.9,2.7,4.9,6.1c0,4-2.8,6.4-6.8,6.4
		c-2.7,0-4.3-1.3-6.1-1.3c-0.9,0-1.1,0.2-1.6,0.7h-1v-7.4H130.2z"/>
	<path class="st0" d="M145.7,23.6c0-6.3,4.3-11.2,9.7-11.1c4.8,0,7.5,3.3,7.7,7.4l0.1,1.5l-14.1,1.1c0,4.3,3,8.5,7.7,8.5
		c3.6,0,5.3-1.4,6.6-3.8h1.3c-1.4,4.6-4,7.5-9.2,7.5C149.6,34.7,145.7,29.6,145.7,23.6z M159.6,20.2c0.4-3-0.1-6-4.3-6
		c-4.4,0-6.1,3.6-6.3,6.9L159.6,20.2z"/>
	<path class="st0" d="M166.9,17c-0.3-0.7-2.2-2.4-2.7-2.4h-0.9V13h11.2v1.6h-1.3c-0.6,0-1.9,1.5-1.9,2.3l4.9,11.3l4.8-11.3
		c0-0.9-1.3-2.3-1.8-2.3h-1.3V13h8.5v1.6h-1c-0.5,0-2,1.6-2.5,2.3l-7.2,16.3l-5.3,11.7l-1.9-0.9l5.6-11.6L166.9,17z"/>
	<path class="st0" d="M64.6,51.1c0,2.6,1.8,4.7,4.6,5.8c4.2,4.5,9.3,9.3,13.7,13.3c1.3-2.1,1.7-4.3,1.7-6.9c0-3-2-4.8-5.2-4.9v-1.6
		H91v1.6h-1.3c-0.6,0-2.9,2.6-2.9,3.5C86.8,64.6,86,68,84,71c2.4,2.1,4.7,4,6.6,5.3h2v1.6H89c-3.2,0-5.4-0.9-8.1-3.3
		c-2.6,2.5-5.9,3.9-10.7,3.9c-5.3,0-10.3-3.9-10.3-9.6c0-4.5,2.3-7.8,5.2-9.9c-1.6-2-2.6-3.9-2.6-6.8c0-4.7,3-7.3,7.8-7.3
		c3,0,4.6,1,6,1c0.7,0,1.2,0,1.5-0.6h1.4V53h-1.4c0-2.2-3.2-6.6-7.6-6.6C66.7,46.4,64.6,48.1,64.6,51.1z M63.2,66.7
		c0,4.7,5,9.1,9.6,9.1c2.9,0,5.2-0.8,7.1-2.2c-4.7-4.1-10-9.2-14.1-13.8C64.1,61.6,63.2,63.4,63.2,66.7z"/>
	<path class="st0" d="M126,56.8c0-3.4-3.8-10.2-9.9-10.2c-5.6,0-9,3.1-9.6,10.5c-0.2,2.9-0.1,5.4,0.1,8.3
		c0.5,5.7,4.5,10.4,11.1,10.4c5.6,0,8.4-2.4,10.5-6.7h1.7c-2.1,5.8-6.7,9.3-13.2,9.3c-9.4,0-15.4-7.7-15.4-17s5.5-16.8,14.6-16.8
		c3.5,0,5.7,1.4,8.2,1.4c1,0,1.5-0.3,2-0.9h1.2v11.6H126z"/>
	<path class="st0" d="M132.1,67.3c0-6.9,4.9-11.2,10.5-11.2s10.5,4.3,10.5,11.2c0,6.9-4.9,11.2-10.5,11.2S132.1,74.1,132.1,67.3z
		 M148.9,70.8c0.3-2.2,0.3-5.1,0-7.2c-0.4-3.4-2.3-5.7-6.2-5.7c-3.8,0-5.7,2.3-6.2,5.6c-0.3,2.1-0.3,5.1,0,7.2
		c0.5,3.3,2.3,5.7,6.2,5.7C146.7,76.5,148.5,74.1,148.9,70.8z"/>
	<path class="st0" d="M187.5,74c0,0.7,1.6,2.2,2.2,2.2h1v1.6h-10.6v-1.6h1.2c0.6,0,2.2-1.5,2.2-2.2V62.3c0-2.1-1-3.5-3.3-3.5
		c-2.8,0-6.2,2.7-6.2,4.1V74c0,0.7,1.6,2.2,2.2,2.2h1.2v1.6h-10.8v-1.6h1.2c0.6,0,2.2-1.5,2.2-2.2V62.3c0-2.1-1.1-3.5-3.4-3.5
		c-2.8,0-6.2,2.8-6.2,4.3v11c0,0.7,1.6,2.2,2.2,2.2h1.2v1.6h-10.8v-1.6h1.2c0.6,0,2.2-1.5,2.2-2.2V60.5c0-0.7-1.6-2.2-2.2-2.2h-1.2
		v-1.6h6.5l0.9,4.1c2.4-2.6,4-4.5,7.7-4.5c2.8,0,5.2,1.5,5.6,4.5c2.6-2.6,4.3-4.4,7.8-4.4c3.2,0,5.8,2.2,5.8,6V74z"/>
	<path class="st0" d="M197,56.7l0.7,4.3c1.8-3.4,4.2-4.9,7.7-4.9c5.2,0,8.3,4.3,8.3,10.8c0,6.5-3.6,11.4-8.7,11.4
		c-3.7,0-5.7-1.4-7.2-4.2v10.1c0,0.7,1.7,2.2,2.2,2.2h1.4v1.6h-11.2v-1.6h1.4c0.6,0,2.2-1.5,2.2-2.2V60.5c0-0.7-1.6-2.2-2.2-2.2
		h-1.4v-1.6H197z M197.7,64.4V70c0,3.3,2.6,6.1,6.1,6.1c3.6,0,5.3-2.3,5.8-5.6c0.3-2,0.3-4.3,0-6.3c-0.4-3.4-2.3-5.5-5.3-5.5
		C200.7,58.6,198.7,61.1,197.7,64.4z"/>
	<path class="st0" d="M259.7,76.3c-0.6,0-2.3-1.5-2.3-2.2V62.3c0-3.6-2.6-6-5.9-6c-3.8,0-5.8,2.2-8.3,4.8l-0.8-4.3h-6.7v1.6h1.3
		c0.6,0,2.3,1.6,2.3,2.2V74c0,0.7-1.7,2.2-2.3,2.2h-1.3h-1.3c-0.6,0-2.3-1.5-2.3-2.2V62.5c0-4.2-3.4-6.3-7.9-6.3
		c-4.3,0-6.8,1.5-8.5,3.3l2.8,4.3h1.5c-1.6-3.6-0.4-6,3.2-6c3.8,0,5,1.7,5,4.7l0,2.6l-5.5,1.1c-3,0.6-6.9,2.1-6.9,6.3
		c0,3.4,2.5,5.8,5.4,5.8c3.1,0,5.4-2.5,7.1-4.7l0.5,4.3h6.9h11.1v-1.6h-1.2c-0.6,0-2.3-1.5-2.3-2.2V63.2c0-1.4,3.9-4.4,6.9-4.4
		c2.3,0,3.4,1.6,3.4,3.6V74c0,0.7-1.7,2.2-2.3,2.2h-1.2v1.6h10.8v-1.6H259.7z M228.2,71.7c-0.9,1.6-3.1,3.7-5.2,3.7
		c-2.1,0-3.4-1.6-3.4-3.4c0-2.1,0.9-3.5,3.5-4.2l5.1-1.3V71.7z"/>
	<path class="st0" d="M262.3,60.7c-0.3-0.7-2.2-2.4-2.7-2.4h-0.9v-1.6h11.2v1.6h-1.3c-0.6,0-1.9,1.5-1.9,2.3l4.9,11.3l4.8-11.3
		c0-0.9-1.3-2.3-1.8-2.3h-1.3v-1.6h8.5v1.6h-1c-0.5,0-2,1.6-2.5,2.3l-7.2,16.3l-5.3,11.7l-1.9-0.9l5.6-11.6L262.3,60.7z"/>
</g>
</svg>
